<svg width="24" height="24" viewBox="0 0 24 24" fill="none" xmlns="http://www.w3.org/2000/svg">
<path fill-rule="evenodd" clip-rule="evenodd" d="M20.16 5.00017C19.1 3.93737 17.6948 3.28871 16.1984 3.17134C14.7019 3.05397 13.2128 3.47563 12 4.36017C10.7277 3.4138 9.14402 2.98468 7.56795 3.1592C5.99188 3.33373 4.54047 4.09894 3.506 5.30075C2.47154 6.50256 1.93085 8.05169 1.99283 9.63618C2.05481 11.2207 2.71485 12.7228 3.84003 13.8402L10.05 20.0602C10.57 20.5719 11.2704 20.8588 12 20.8588C12.7296 20.8588 13.43 20.5719 13.95 20.0602L20.16 13.8402C21.3276 12.6654 21.983 11.0764 21.983 9.42017C21.983 7.76389 21.3276 6.1749 20.16 5.00017Z" fill="#BCBCBC"/>
</svg>
