<svg width="24" height="24" viewBox="0 0 24 24" fill="none" xmlns="http://www.w3.org/2000/svg">
<path d="M22.1829 11.836L13.1267 2.78443L12.5196 2.1774C12.3813 2.04 12.1943 1.96289 11.9993 1.96289C11.8044 1.96289 11.6173 2.04 11.479 2.1774L1.81572 11.836C1.674 11.9772 1.56199 12.1453 1.48631 12.3305C1.41063 12.5156 1.37282 12.7141 1.3751 12.9141C1.38447 13.7391 2.07119 14.3977 2.89619 14.3977H3.89228V22.0313H20.1063V14.3977H21.1235C21.5243 14.3977 21.9017 14.2407 22.1853 13.9571C22.3249 13.8179 22.4355 13.6524 22.5108 13.4701C22.586 13.2879 22.6243 13.0925 22.6235 12.8954C22.6235 12.4969 22.4665 12.1196 22.1829 11.836ZM13.3118 20.3438H10.6868V15.5626H13.3118V20.3438ZM18.4188 12.7102V20.3438H14.8118V15.0001C14.8118 14.4821 14.3923 14.0626 13.8743 14.0626H10.1243C9.60635 14.0626 9.18682 14.4821 9.18682 15.0001V20.3438H5.57978V12.7102H3.32978L12.0017 4.04537L12.5431 4.58678L20.6712 12.7102H18.4188Z" fill="#D4D4D4"/>
</svg>
